<svg xmlns="http://www.w3.org/2000/svg" viewBox="0 0 32 32" id="instagram" width="32" height="32"><path d="M10.668 16c0 -2.945 2.387 -5.334 5.332 -5.334s5.334 2.388 5.334 5.334 -2.388 5.334 -5.334 5.334 -5.332 -2.388 -5.332 -5.334m-2.883 0c0 4.538 3.678 8.216 8.216 8.216s8.216 -3.678 8.216 -8.216 -3.678 -8.216 -8.216 -8.216S7.784 11.462 7.784 16m14.837 -8.542c0 1.06 0.859 1.921 1.921 1.921 1.06 0 1.921 -0.861 1.921 -1.921s-0.859 -1.919 -1.921 -1.919 -1.921 0.859 -1.921 1.919M9.535 29.024c-1.56 -0.071 -2.408 -0.331 -2.971 -0.551 -0.747 -0.291 -1.279 -0.637 -1.84 -1.197 -0.56 -0.56 -0.907 -1.092 -1.197 -1.839 -0.22 -0.563 -0.479 -1.411 -0.551 -2.971 -0.078 -1.687 -0.093 -2.193 -0.093 -6.466s0.017 -4.778 0.093 -6.466c0.071 -1.56 0.332 -2.406 0.551 -2.971 0.291 -0.747 0.637 -1.279 1.197 -1.84 0.56 -0.56 1.092 -0.907 1.84 -1.197 0.563 -0.22 1.411 -0.479 2.971 -0.551 1.687 -0.078 2.193 -0.093 6.465 -0.093 4.273 0 4.778 0.017 6.466 0.093 1.56 0.071 2.406 0.332 2.971 0.551 0.747 0.289 1.279 0.637 1.84 1.197 0.56 0.56 0.906 1.093 1.197 1.84 0.22 0.563 0.479 1.411 0.551 2.971 0.078 1.688 0.093 2.193 0.093 6.466 0 4.271 -0.016 4.778 -0.093 6.466 -0.071 1.56 -0.332 2.408 -0.551 2.971 -0.291 0.747 -0.637 1.279 -1.197 1.839s-1.093 0.906 -1.84 1.197c-0.563 0.22 -1.411 0.479 -2.971 0.551 -1.687 0.078 -2.193 0.093 -6.466 0.093 -4.271 0 -4.778 -0.016 -6.465 -0.093M9.404 0.097c-1.703 0.078 -2.867 0.348 -3.884 0.743 -1.052 0.408 -1.944 0.956 -2.834 1.846C1.796 3.575 1.248 4.467 0.84 5.52 0.445 6.537 0.174 7.7 0.097 9.404 0.018 11.11 0 11.655 0 16s0.018 4.89 0.097 6.596c0.078 1.703 0.348 2.867 0.743 3.884 0.408 1.052 0.955 1.945 1.846 2.834 0.889 0.889 1.781 1.436 2.834 1.846 1.018 0.395 2.18 0.666 3.884 0.743 1.707 0.078 2.251 0.097 6.596 0.097 4.346 0 4.89 -0.018 6.596 -0.097 1.703 -0.078 2.867 -0.348 3.884 -0.743 1.052 -0.41 1.944 -0.956 2.834 -1.846 0.889 -0.889 1.436 -1.782 1.846 -2.834 0.395 -1.017 0.667 -2.18 0.743 -3.884 0.078 -1.707 0.096 -2.251 0.096 -6.596s-0.018 -4.89 -0.096 -6.596c-0.078 -1.703 -0.348 -2.867 -0.743 -3.884 -0.41 -1.052 -0.956 -1.944 -1.846 -2.834C28.425 1.796 27.532 1.248 26.481 0.84c-1.018 -0.395 -2.182 -0.667 -3.884 -0.743 -1.706 -0.078 -2.251 -0.097 -6.596 -0.097 -4.346 0 -4.89 0.018 -6.598 0.097" fill="#000000"/></svg>